:SAMPLES-PER-SECOND 30
:FULLY-SPECIFIED
:DEGREES
1
root  83.751 40.4063 -2.17419 177.51 -86.7604 -176.939
RightUpLeg  0.0992817 -7.08961 -3.45706
RightLeg  2.46824 -4.40417 3.95042
RightFoot  -1.99955 0.190692 -2.50869
RightToes  0.00048216 0.542163 -0.142577
Spine  4.52349 0.38828 3.16262
Spine1  -0.365049 1.1772 -4.03933
HEad  4.03974 2.39746 1.03207
LeftShoulder1  0.327079 1.64561 -9.95508
LeftArm  -19.2602 3.62782 -3.07066
LeftForeArm  8.5669 0.526634 -1.50046
LeftHand  -0.25398 0.0180481 5.50724
RightShoulder  0.461826 -0.513097 7.93359
RightArm  -21.3141 0.868723 1.45254
RightForeArm  -2.5578 -1.07441 2.95632
RightHand  -1.68904 6.06357 -17.3896
LeftUpLeg  0.121473 6.28789 3.97995
LeftLeg  2.08297 16.1672 -4.47064
LeftFoot  -2.70451 0.000331422 0.296577
LeftToes  1.06246e-005 4.65856e-005 -8.18505e-006
2
root  83.7462 40.4063 -2.17386 177.647 -86.7976 -177.094
RightUpLeg  0.114496 -7.11642 -3.48625
RightLeg  2.50773 -4.39772 3.95911
RightFoot  -2.01476 0.187629 -2.4661
RightToes  0.00048216 0.542163 -0.142577
Spine  3.8638 0.499986 2.73972
Spine1  0.637974 1.16944 -3.31882
HEad  3.55694 2.39466 0.712181
LeftShoulder1  0.365812 1.47706 -10.4793
LeftArm  -19.2912 3.47182 -2.88723
LeftForeArm  8.66954 0.522667 -1.50368
LeftHand  -0.25398 0.0180481 5.50724
RightShoulder  0.424351 -0.664445 7.37694
RightArm  -21.6676 0.956151 1.79031
RightForeArm  -2.31764 -1.17905 2.82441
RightHand  -1.69638 6.12345 -17.3764
LeftUpLeg  0.148633 6.26684 3.96036
LeftLeg  2.06785 16.15 -4.46391
LeftFoot  -2.70477 -0.00146306 0.324465
LeftToes  1.06246e-005 4.65856e-005 -8.18505e-006
3
root  83.735 40.4063 -2.17236 177.53 -86.8477 -177
RightUpLeg  0.165076 -7.12849 -3.4978
RightLeg  2.51071 -4.43075 3.96252
RightFoot  -2.0239 0.183461 -2.41935
RightToes  0.00048216 0.542163 -0.142577
Spine  3.05146 0.597383 2.28598
Spine1  1.86977 1.13261 -2.55271
HEad  3.02559 2.34613 0.379873
LeftShoulder1  0.399417 1.35007 -11.0467
LeftArm  -19.2483 3.27957 -2.72362
LeftForeArm  8.67829 0.490682 -1.55259
LeftHand  -0.25398 0.0180481 5.50724
RightShoulder  0.385191 -0.828429 6.76566
RightArm  -22.0898 1.07786 2.17184
RightForeArm  -2.49107 -1.28824 2.69693
RightHand  -1.69473 6.02363 -17.5038
LeftUpLeg  0.182805 6.2542 3.95679
LeftLeg  2.07278 16.1075 -4.44907
LeftFoot  -2.71032 -0.000866186 0.315189
LeftToes  1.06246e-005 4.65856e-005 -8.18505e-006
4
root  83.723 40.4063 -2.17027 177.298 -86.8792 -176.779
RightUpLeg  0.211344 -7.12461 -3.49065
RightLeg  2.48726 -4.47914 3.95833
RightFoot  -2.03042 0.182875 -2.4219
RightToes  0.00048216 0.542163 -0.142577
Spine  2.64548 0.619673 2.11938
Spine1  2.4686 1.10473 -2.27904
HEad  2.66138 2.28486 0.295395
LeftShoulder1  0.411039 1.31341 -11.2903
LeftArm  -19.1761 3.2097 -2.66422
LeftForeArm  8.54869 0.486274 -1.59858
LeftHand  -0.25398 0.0180481 5.50724
RightShoulder  0.365667 -0.925715 6.52444
RightArm  -22.3715 1.17734 2.32277
RightForeArm  -2.61248 -1.3968 2.60627
RightHand  -1.70308 5.98527 -17.6427
LeftUpLeg  0.197388 6.24899 3.96175
LeftLeg  2.09897 16.0776 -4.42931
LeftFoot  -2.73213 0.00180093 0.27374
LeftToes  1.06246e-005 4.65856e-005 -8.18505e-006
5
root  83.7147 40.4063 -2.16881 177.442 -86.8991 -176.924
RightUpLeg  0.231913 -7.1391 -3.5065
RightLeg  2.48094 -4.49027 3.9626
RightFoot  -2.05303 0.184011 -2.44741
RightToes  0.00048216 0.542163 -0.142577
Spine  2.63381 0.620747 2.12461
Spine1  2.43977 1.1214 -2.35587
HEad  2.38158 2.24243 0.39234
LeftShoulder1  0.423564 1.23967 -11.2389
LeftArm  -19.2787 3.26719 -2.67047
LeftForeArm  8.77911 0.535101 -1.52966
LeftHand  -0.25398 0.0180481 5.50724
RightShoulder  0.363862 -0.955221 6.62757
RightArm  -22.4751 1.18513 2.21209
RightForeArm  -2.19985 -1.50978 2.52932
RightHand  -1.72808 6.18554 -17.5992
LeftUpLeg  0.199433 6.23141 3.94376
LeftLeg  2.12139 16.0751 -4.41114
LeftFoot  -2.75991 0.00330712 0.250332
LeftToes  1.06246e-005 4.65856e-005 -8.18505e-006
